<?xml version="1.0" encoding="UTF-8"?>
<svg version="1.1" xmlns="http://www.w3.org/2000/svg" width="556" height="309">
<path d="M0 0 C5.16943035 2.50133727 8.61595777 4.8600303 11.05859375 10.24609375 C13.28008265 17.04878642 14.9375 24.78460628 14.9375 31.9375 C15.5975 31.9375 16.2575 31.9375 16.9375 31.9375 C19.18900265 41.47919091 20.6428278 50.7938768 21.5 60.5625 C21.62322755 61.92222104 21.74668634 63.28192114 21.87036133 64.64160156 C22.18024076 68.08602185 22.47642178 71.53148302 22.7689209 74.97741699 C22.92809882 76.82819168 23.09515058 78.67828429 23.26269531 80.52832031 C31.32784752 170.115519 31.32784752 170.115519 14.21875 202.3515625 C12.62525551 205.56770076 11.57258647 208.89839981 10.5 212.3125 C4.28126309 231.66516976 4.28126309 231.66516976 -2.0625 235.9375 C-3.67157108 238.31362865 -3.67157108 238.31362865 -5.0625 240.9375 C-5.578125 241.783125 -6.09375 242.62875 -6.625 243.5 C-8.0687714 245.83942968 -8.0687714 245.83942968 -9 248.0625 C-10.0625 249.9375 -10.0625 249.9375 -12.125 251.4375 C-14.22505319 252.74118289 -14.22505319 252.74118289 -14.52661133 254.84716797 C-15.43202227 258.37888936 -18.22503797 260.5708808 -20.75 263.0625 C-21.26755859 263.60003906 -21.78511719 264.13757813 -22.31835938 264.69140625 C-25.70278847 268.07162062 -28.37833691 269.60700565 -33.0625 270.9375 C-33.3925 271.5975 -33.7225 272.2575 -34.0625 272.9375 C-37.6078885 277.74536079 -40.86542744 280.37158945 -46.1875 283 C-46.85056152 283.33797607 -47.51362305 283.67595215 -48.19677734 284.02416992 C-50.14521053 285.00967905 -52.1029955 285.97424884 -54.0625 286.9375 C-55.0421875 287.43765625 -56.021875 287.9378125 -57.03125 288.453125 C-66.77268026 293.20923507 -77.26862823 295.3945156 -88.0625 295.9375 C-89.485625 296.01677734 -89.485625 296.01677734 -90.9375 296.09765625 C-103.49955236 296.45881526 -116.30861037 294.39587193 -128.0625 289.9375 C-129.39161682 289.58773242 -130.72412678 289.24998362 -132.0625 288.9375 C-132.0625 288.2775 -132.0625 287.6175 -132.0625 286.9375 C-133.25875 286.586875 -134.455 286.23625 -135.6875 285.875 C-145.8962724 282.47746877 -156.40729445 277.27745625 -164.4375 270.0625 C-166.88996956 267.90173387 -169.39842516 265.9551246 -172.0625 264.0625 C-175.72035987 261.37206639 -178.49523754 258.31119661 -181.38671875 254.828125 C-182.98295522 253.02724283 -184.60452002 251.59876898 -186.5 250.125 C-187.345625 249.403125 -188.19125 248.68125 -189.0625 247.9375 C-189.0625 246.9475 -189.0625 245.9575 -189.0625 244.9375 C-189.7225 244.9375 -190.3825 244.9375 -191.0625 244.9375 C-192.01619069 243.57508473 -192.96023546 242.20478887 -193.8515625 240.80078125 C-195.22655932 238.68506034 -196.68823948 236.6544868 -198.1875 234.625 C-198.68507812 233.94824219 -199.18265625 233.27148438 -199.6953125 232.57421875 C-200.98350661 230.81043659 -200.98350661 230.81043659 -203.0625 229.9375 C-204 228.43359375 -204 228.43359375 -205.0625 226.375 C-206.69308956 223.32483836 -208.40064589 220.3746207 -210.296875 217.484375 C-230.0625 187.27483618 -230.0625 187.27483618 -230.0625 173.9375 C-230.7225 173.9375 -231.3825 173.9375 -232.0625 173.9375 C-239.77259054 151.21302261 -239.77259054 151.21302261 -241.59765625 142.0703125 C-242.15606308 139.50821057 -242.89217042 137.01756766 -243.625 134.5 C-245.07005899 129.33281936 -245.72621852 124.28321594 -246.0625 118.9375 C-246.7225 118.9375 -247.3825 118.9375 -248.0625 118.9375 C-248.02125 118.23625 -247.98 117.535 -247.9375 116.8125 C-247.91894227 113.94252989 -247.91894227 113.94252989 -248.97265625 111.41796875 C-250.42189301 106.78976102 -251.00509515 102.17538309 -251.625 97.375 C-251.75503418 96.40151611 -251.88506836 95.42803223 -252.01904297 94.42504883 C-252.85777903 87.99028715 -253.49943085 81.58636795 -253.8515625 75.10546875 C-253.82862132 72.95960964 -253.82862132 72.95960964 -255.0625 71.9375 C-255.21522417 69.85810164 -255.28445322 67.77231069 -255.3125 65.6875 C-255.33828125 64.54796875 -255.3640625 63.4084375 -255.390625 62.234375 C-255.01859591 58.49636848 -254.48976055 56.79890471 -252.0625 53.9375 C-245.234419 49.86377005 -237.80198976 50.3983002 -230.05859375 50.27734375 C-228.57427117 50.24302446 -227.08998195 50.20723426 -225.60572815 50.1700592 C-221.69681657 50.07510895 -217.7877625 49.99570813 -213.87841797 49.92095947 C-206.93808491 49.78684762 -199.99818977 49.63265983 -193.05859375 49.46484375 C-192.31474804 49.44690136 -191.57090233 49.42895897 -190.80451584 49.41047287 C-181.6114801 49.18039689 -172.44825556 48.82019524 -163.28515625 48.00390625 C-162.43062363 47.92897446 -161.576091 47.85404266 -160.69566345 47.77684021 C-155.9428883 47.29917972 -151.66301445 46.265989 -147.0625 44.9375 C-144.94493022 44.72527176 -142.81863694 44.58693692 -140.69140625 44.5234375 C-138.96567383 44.46542969 -138.96567383 44.46542969 -137.20507812 44.40625 C-136.02365234 44.3753125 -134.84222656 44.344375 -133.625 44.3125 C-131.81225586 44.25449219 -131.81225586 44.25449219 -129.96289062 44.1953125 C-126.99624183 44.10150542 -124.02959164 44.01580754 -121.0625 43.9375 C-121.0625 43.2775 -121.0625 42.6175 -121.0625 41.9375 C-118.06209709 41.32419119 -115.05665794 40.75408222 -112.04296875 40.2109375 C-102.34295918 38.41733151 -92.85138955 36.18494002 -83.375 33.4375 C-82.38459717 33.15310059 -81.39419434 32.86870117 -80.3737793 32.57568359 C-75.21223235 31.04281027 -70.32911599 29.28083724 -65.44555664 27.01757812 C-60.58119507 24.81289258 -55.58799603 22.90717972 -50.625 20.9375 C-49.02301758 20.29941406 -49.02301758 20.29941406 -47.38867188 19.6484375 C-45.28481506 18.81049331 -43.18017938 17.97450156 -41.07470703 17.140625 C-39.09685124 16.35063689 -37.12364065 15.54889771 -35.15576172 14.734375 C-34.26775879 14.36828125 -33.37975586 14.0021875 -32.46484375 13.625 C-31.29489868 13.13580078 -31.29489868 13.13580078 -30.10131836 12.63671875 C-28.0625 11.9375 -28.0625 11.9375 -25.0625 11.9375 C-24.7325 11.2775 -24.4025 10.6175 -24.0625 9.9375 C-21.70263184 8.71637122 -19.35779246 7.58774594 -16.9375 6.5 C-16.28523437 6.20029297 -15.63296875 5.90058594 -14.9609375 5.59179688 C-12.99997648 4.69496847 -11.03263858 3.81396255 -9.0625 2.9375 C-8.40870361 2.64270752 -7.75490723 2.34791504 -7.08129883 2.04418945 C-2.3062037 -0.06988496 -2.3062037 -0.06988496 0 0 Z " fill="#D3EBCB" transform="translate(262.0625,5.0625)"/>
<path d="M0 0 C6.43635194 0.0830497 10.12048462 1.62090913 14.73828125 6.046875 C19.4765389 10.13816156 24.97292226 12.12658546 30.75 14.375 C32.84350923 15.20827601 34.93598086 16.04416415 37.02734375 16.8828125 C38.01911621 17.27984375 39.01088867 17.676875 40.03271484 18.0859375 C43.72683077 19.63288504 47.24785115 21.42622617 50.8125 23.25 C52.29975592 23.86509967 53.79682855 24.45868877 55.3125 25 C56.4675 25.4125 57.6225 25.825 58.8125 26.25 C58.8125 27.24 58.8125 28.23 58.8125 29.25 C61.1225 29.25 63.4325 29.25 65.8125 29.25 C66.3075 30.735 66.3075 30.735 66.8125 32.25 C67.45316406 32.28738281 68.09382813 32.32476562 68.75390625 32.36328125 C74.41256141 32.79337277 78.73423813 33.71086906 83.8125 36.25 C83.8125 36.91 83.8125 37.57 83.8125 38.25 C84.39008057 38.35521973 84.96766113 38.46043945 85.56274414 38.56884766 C92.567276 39.90100213 99.3845141 41.71254853 106.25 43.625 C117.03700593 46.58402906 127.8358676 49.1121428 138.8125 51.25 C140.47924976 51.58291759 142.14595938 51.91603705 143.8125 52.25 C143.8125 52.91 143.8125 53.57 143.8125 54.25 C144.58851563 54.30551025 145.36453125 54.36102051 146.1640625 54.41821289 C151.91153115 54.84301461 157.64448461 55.31948828 163.375 55.93359375 C177.7282597 57.41635231 192.03704432 58.36718407 206.4609375 58.8203125 C207.14555305 58.8418873 207.83016861 58.8634621 208.53553009 58.88569069 C215.50604909 59.10254852 222.47690814 59.29824981 229.44879723 59.46538544 C231.45353924 59.51443526 233.45817196 59.56788911 235.46279907 59.62142944 C237.9508554 59.68752283 240.43913638 59.74575819 242.92758179 59.79507446 C244.59610703 59.84055923 244.59610703 59.84055923 246.29833984 59.88696289 C247.7566774 59.92002281 247.7566774 59.92002281 249.24447632 59.95375061 C251.8125 60.25 251.8125 60.25 255.8125 62.25 C255.8125 69.84 255.8125 77.43 255.8125 85.25 C255.1525 85.25 254.4925 85.25 253.8125 85.25 C253.78091797 85.88131836 253.74933594 86.51263672 253.71679688 87.16308594 C253.0428577 97.4105084 251.14269676 107.4110632 249.3125 117.5 C248.82839046 120.18992736 248.3459011 122.88012963 247.86560059 125.57073975 C247.56868409 127.23187039 247.26944633 128.89258855 246.96740723 130.55279541 C246.08913695 135.44016136 245.38816389 140.31754332 244.8125 145.25 C243.1625 145.58 241.5125 145.91 239.8125 146.25 C239.8125 149.22 239.8125 152.19 239.8125 155.25 C238.8225 155.58 237.8325 155.91 236.8125 156.25 C236.66554688 158.05597656 236.66554688 158.05597656 236.515625 159.8984375 C236.36556645 161.47405227 236.21447088 163.04956853 236.0625 164.625 C236.000625 165.4190625 235.93875 166.213125 235.875 167.03125 C235.65617732 169.18300639 235.42329513 171.17444902 234.8125 173.25 C232.734375 174.7890625 232.734375 174.7890625 230.8125 175.25 C230.895 176.28125 230.9775 177.3125 231.0625 178.375 C230.74031809 183.36881956 228.92257051 186.27138648 225.28808594 189.67944336 C223.64807729 191.42500518 222.9165263 192.91757905 222.015625 195.12890625 C221.70028809 195.88075195 221.38495117 196.63259766 221.06005859 197.40722656 C220.73086426 198.2009668 220.40166992 198.99470703 220.0625 199.8125 C216.37950078 208.37721848 212.33953751 215.95665344 205.5625 222.5 C202.72356094 225.04906361 202.72356094 225.04906361 201.375 228.125 C199.5475318 231.7799364 197.1936649 234.3480317 194.453125 237.34765625 C192.64541667 239.32670397 192.64541667 239.32670397 191.0625 242.25 C190.65 242.91 190.2375 243.57 189.8125 244.25 C188.8225 244.25 187.8325 244.25 186.8125 244.25 C186.60625 245.013125 186.4 245.77625 186.1875 246.5625 C184.36174423 250.13102264 182.41041838 250.58942229 178.8125 252.25 C177.36975541 253.47346381 175.927433 254.69743766 174.48925781 255.92626953 C171.7147841 258.11660099 168.66122037 259.75355556 165.5625 261.4375 C160.89295275 263.92419476 160.89295275 263.92419476 156.8125 267.25 C147.70325493 272.99278493 138.79987778 275.96282442 128.27490234 277.90600586 C127.48293457 278.05432861 126.6909668 278.20265137 125.875 278.35546875 C125.16472656 278.48074951 124.45445312 278.60603027 123.72265625 278.73510742 C121.5066302 279.22350295 121.5066302 279.22350295 118.8125 281.25 C116.12655085 281.42162025 113.54705099 281.48224552 110.86328125 281.4453125 C109.70435616 281.44106766 109.70435616 281.44106766 108.52201843 281.43673706 C106.05618757 281.42554878 103.59072094 281.40044703 101.125 281.375 C99.45247921 281.36496843 97.77995272 281.35584289 96.10742188 281.34765625 C92.00897441 281.32561392 87.91079894 281.29109363 83.8125 281.25 C83.4825 280.59 83.1525 279.93 82.8125 279.25 C80.78195509 279.03994363 78.75099325 278.83355949 76.71875 278.640625 C67.55239422 277.40858793 58.89033131 274.55896994 50.5 270.75 C49.85981934 270.46560059 49.21963867 270.18120117 48.56005859 269.88818359 C44.90181645 268.14498105 43.45850495 266.87716928 41.8125 263.25 C39.71264005 262.09454648 39.71264005 262.09454648 37.3125 261.3125 C32.95190148 259.56548756 32.95190148 259.56548756 31.625 256.5625 C31.356875 255.799375 31.08875 255.03625 30.8125 254.25 C29.4821875 254.064375 29.4821875 254.064375 28.125 253.875 C23.21690482 252.94894431 20.8944075 250.04199071 17.8125 246.25 C16.99410722 244.95399629 16.20164164 243.64121363 15.4375 242.3125 C12.96796969 238.06490787 9.68974006 235.28018606 5.8984375 232.20703125 C3.62602773 230.0750513 2.30857904 227.96934367 0.8125 225.25 C0.27625 224.445625 -0.26 223.64125 -0.8125 222.8125 C-2.3557069 219.9365235 -2.81261792 217.47398589 -3.1875 214.25 C-4.8375 213.92 -6.4875 213.59 -8.1875 213.25 C-8.7031159 211.1875364 -9.2030553 209.15926073 -9.5625 207.0625 C-9.76875 206.464375 -9.975 205.86625 -10.1875 205.25 C-11.1775 204.92 -12.1675 204.59 -13.1875 204.25 C-14.14369733 200.25204108 -14.2914592 196.54196078 -14.25 192.4375 C-14.24097656 191.27605469 -14.23195313 190.11460937 -14.22265625 188.91796875 C-14.21105469 188.03753906 -14.19945312 187.15710938 -14.1875 186.25 C-13.1975 185.92 -12.2075 185.59 -11.1875 185.25 C-11.13215088 184.46761963 -11.07680176 183.68523926 -11.01977539 182.87915039 C-10.76791959 179.35657613 -10.50905545 175.83455178 -10.25 172.3125 C-10.16298828 171.08080078 -10.07597656 169.84910156 -9.98632812 168.58007812 C-9.89931641 167.41025391 -9.81230469 166.24042969 -9.72265625 165.03515625 C-9.644104 163.95113525 -9.56555176 162.86711426 -9.48461914 161.75024414 C-9.1875 159.25 -9.1875 159.25 -8.1875 158.25 C-8.10118126 156.90732587 -8.08043527 155.56025678 -8.08984375 154.21484375 C-8.09306641 153.40595703 -8.09628906 152.59707031 -8.09960938 151.76367188 C-8.10798828 150.91353516 -8.11636719 150.06339844 -8.125 149.1875 C-8.13176758 147.90649414 -8.13176758 147.90649414 -8.13867188 146.59960938 C-8.15049627 144.48304337 -8.16843231 142.36651315 -8.1875 140.25 C-7.5275 140.25 -6.8675 140.25 -6.1875 140.25 C-6.1875 132.33 -6.1875 124.41 -6.1875 116.25 C-4.2075 115.755 -4.2075 115.755 -2.1875 115.25 C-2.1875 100.07 -2.1875 84.89 -2.1875 69.25 C-3.5075 68.59 -4.8275 67.93 -6.1875 67.25 C-6.1875 56.03 -6.1875 44.81 -6.1875 33.25 C-6.8475 32.92 -7.5075 32.59 -8.1875 32.25 C-8.1875 29.28 -8.1875 26.31 -8.1875 23.25 C-7.5275 23.25 -6.8675 23.25 -6.1875 23.25 C-6.1875 19.95 -6.1875 16.65 -6.1875 13.25 C-7.5075 12.92 -8.8275 12.59 -10.1875 12.25 C-10.1875 10.6 -10.1875 8.95 -10.1875 7.25 C-8.8675 6.92 -7.5475 6.59 -6.1875 6.25 C-6.208125 5.445625 -6.22875 4.64125 -6.25 3.8125 C-6.13954919 -0.7159832 -4.01605108 0.06503726 0 0 Z " fill="#9DCBD8" transform="translate(300.1875,27.75)"/>
<path d="M0 0 C0.99 0.495 0.99 0.495 2 1 C1.01428618 8.66522196 -0.55850612 15.08880328 -4 22 C-4.67834587 23.66194738 -5.35199575 25.32598903 -6 27 C-6.66 27 -7.32 27 -8 27 C-8.23074219 27.71027344 -8.46148437 28.42054688 -8.69921875 29.15234375 C-10.26079825 32.57093671 -12.25910652 34.81004136 -14.8125 37.5625 C-15.66457031 38.49191406 -16.51664062 39.42132813 -17.39453125 40.37890625 C-31.63713462 54.70692254 -51.7196776 57.37709857 -71.01806641 57.52563477 C-90.28158491 57.22337999 -107.58505106 48.70092654 -121 35 C-127 27.97107438 -127 27.97107438 -127 25 C-127.66 25 -128.32 25 -129 25 C-129 21.7 -129 18.4 -129 15 C-122.36318424 15.68738449 -115.99207631 17.04171834 -109.5 18.5625 C-108.48679687 18.79646484 -107.47359375 19.03042969 -106.4296875 19.27148438 C-103.95227521 19.84409382 -101.47577035 20.42034015 -99 21 C-99 21.66 -99 22.32 -99 23 C-93.41326174 23.04957515 -87.82665261 23.08580253 -82.23974609 23.10986328 C-80.34063485 23.11989779 -78.44153896 23.13352843 -76.54248047 23.15087891 C-73.80692749 23.17523951 -71.07157947 23.18650877 -68.3359375 23.1953125 C-67.06996231 23.21079636 -67.06996231 23.21079636 -65.77841187 23.22659302 C-61.09248319 23.22747743 -57.41816971 22.74948217 -53 21 C-51.04601097 20.5634139 -49.08730191 20.14755727 -47.125 19.75 C-32.88292499 16.48212663 -21.55164691 11.48598014 -10.4609375 1.77734375 C-6.72681985 -0.919519 -4.50530496 -0.36928729 0 0 Z " fill="#030303" transform="translate(230,180)"/>
<path d="M0 0 C8.14264207 6.73653434 17.09293552 15.18403493 18.17578125 26.265625 C18.18602162 28.92812232 18.10187442 31.53559006 17.875 34.1875 C10.78055392 34.03516213 6.63181286 32.27827351 1.0625 28 C-0.33469369 26.98815477 -1.7357641 25.98164147 -3.140625 24.98046875 C-4.15866211 24.2541626 -4.15866211 24.2541626 -5.19726562 23.51318359 C-23.91560852 10.64076694 -48.79202747 6.32585776 -71.00390625 9.79296875 C-74.85985057 10.74368343 -78.48736355 11.94025321 -82.1875 13.375 C-86.78395196 14.64635905 -91.38613175 14.3392787 -96.125 14.1875 C-97.13176967 10.73571827 -97.77466067 8.5267595 -96.171875 5.22265625 C-87.87479921 -6.2883967 -77.26297174 -13.58100645 -63.3371582 -15.98803711 C-40.17144042 -19.51296323 -18.5232388 -14.24646654 0 0 Z " fill="#030404" transform="translate(430.125,226.8125)"/>
<path d="M0 0 C2.68797966 2.2214708 4.64522693 4.5381529 6.578125 7.4375 C6.65717564 9.76949388 6.66611269 12.10582622 6.578125 14.4375 C5.76883545 14.45208252 4.9595459 14.46666504 4.12573242 14.48168945 C-15.1831373 14.76348239 -15.1831373 14.76348239 -34.359375 16.8125 C-35.08938721 16.92634033 -35.81939941 17.04018066 -36.5715332 17.1574707 C-41.19241396 17.97632639 -45.15169814 19.53459613 -49.421875 21.4375 C-51.05387848 21.88696193 -52.69948292 22.29302158 -54.359375 22.625 C-55.51759766 22.86283203 -55.51759766 22.86283203 -56.69921875 23.10546875 C-57.55193359 23.26982422 -57.55193359 23.26982422 -58.421875 23.4375 C-59.29965053 15.36196511 -55.55477041 8.928594 -50.734375 2.625 C-38.3610821 -10.96955297 -14.39320825 -9.28594081 0 0 Z " fill="#050505" transform="translate(237.421875,119.5625)"/>
<path d="M0 0 C4.33144709 1.14179302 7.64947856 3.72516877 11.25 6.3125 C23.82662157 15.19408423 35.74189398 20.42213899 51.15234375 21.75390625 C53 22 53 22 55 23 C54.54451813 27.89643015 53.59042714 30.58909421 50 34 C40.63431144 39.1304691 31.25542137 40.25207224 20.65625 38.64453125 C10.38815315 35.50939512 3.80086051 25.98539434 -1 17 C-1.66 16.01 -2.32 15.02 -3 14 C-3.30078125 11.15234375 -3.30078125 11.15234375 -3.3125 7.9375 C-3.32925781 6.87402344 -3.34601563 5.81054688 -3.36328125 4.71484375 C-3.24339844 3.81894531 -3.12351562 2.92304688 -3 2 C-2.01 1.34 -1.02 0.68 0 0 Z " fill="#040506" transform="translate(442,153)"/>
<path d="M0 0 C7.09370988 5.18741977 7.09370988 5.18741977 9 9 C9.039992 10.99960012 9.04346799 13.00047242 9 15 C7.80793945 15.01401855 7.80793945 15.01401855 6.59179688 15.02832031 C-12.56731225 15.31121393 -29.54977338 15.94215417 -46.77661133 25.35766602 C-50.22526646 27.23725636 -51.9712608 28 -56 28 C-56.54053423 19.17127418 -52.62440714 11.43896462 -47.10546875 4.6796875 C-45.16684449 2.85556447 -43.25269144 1.41467363 -41 0 C-40.33097656 -0.42925781 -39.66195312 -0.85851562 -38.97265625 -1.30078125 C-28.19766908 -6.81136344 -10.33632386 -6.12720229 0 0 Z " fill="#030403" transform="translate(128,133)"/>
<path d="M0 0 C0.36684766 6.84782306 -0.07132842 12.47554475 -4.59375 17.91796875 C-11.56763853 24.62033293 -19.43331021 27.18629589 -29 27.4375 C-39.2172679 27.0913412 -48.19566508 24.89760721 -56 18 C-60.05670271 13.32930985 -60.41654983 8.93583509 -60 3 C-58.75863281 3.10828125 -58.75863281 3.10828125 -57.4921875 3.21875 C-40.70359086 4.52412684 -23.32766102 5.6471765 -7 0.875 C-4 0 -4 0 0 0 Z " fill="#020303" transform="translate(389,140)"/>
<path d="M0 0 C1.25683594 0.04833984 2.51367188 0.09667969 3.80859375 0.14648438 C5.12730469 0.20255859 6.44601562 0.25863281 7.8046875 0.31640625 C9.14451188 0.36963038 10.48435558 0.42237076 11.82421875 0.47460938 C15.10959637 0.60460633 18.39469428 0.73958311 21.6796875 0.87890625 C21.6796875 1.86890625 21.6796875 2.85890625 21.6796875 3.87890625 C11.7796875 3.87890625 1.8796875 3.87890625 -8.3203125 3.87890625 C-8.3203125 2.88890625 -8.3203125 1.89890625 -8.3203125 0.87890625 C-5.47357495 -0.54446252 -3.17415903 -0.12868212 0 0 Z " fill="#4C636A" transform="translate(392.3203125,305.12109375)"/>
<path d="M0 0 C0.66 0.33 1.32 0.66 2 1 C-1.63 4.63 -5.26 8.26 -9 12 C-9 8.47601214 -8.44884893 7.98495633 -6.1875 5.4375 C-5.40439453 4.53837891 -5.40439453 4.53837891 -4.60546875 3.62109375 C-3 2 -3 2 0 0 Z " fill="#2C312A" transform="translate(87,133)"/>
<path d="M0 0 C0.66 0.33 1.32 0.66 2 1 C-1.3 4.3 -4.6 7.6 -8 11 C-8 7.45459812 -7.40614728 6.93992636 -5.125 4.375 C-4.59132812 3.76398438 -4.05765625 3.15296875 -3.5078125 2.5234375 C-2 1 -2 1 0 0 Z " fill="#262B25" transform="translate(192,118)"/>
</svg>
